# Blender v2.83.3 OBJ File: 'multitool.blend'
# www.blender.org
mtllib display.mtl
o Display_Cube.008
v 1.996741 5.003260 0.500000
v 1.996741 5.003260 -0.500000
v 2.996741 5.003260 -0.500000
v 1.996741 6.003260 0.500000
v 1.996741 6.003260 -0.500000
v 2.996741 6.003260 -0.500000
v 0.996741 5.003260 0.500000
v 0.996741 5.003260 -0.500000
v 0.996741 6.003260 0.500000
v 0.996741 6.003260 -0.500000
v 3.996741 6.003260 -0.500000
v 1.996741 7.003260 0.500000
v 1.996741 7.003260 -0.500000
v 2.996741 7.003260 -0.500000
v 2.996741 7.003260 0.500000
v 0.996741 7.003260 0.500000
v 0.996741 7.003260 -0.500000
v 3.996741 7.003260 -0.500000
v 4.996741 7.003260 -0.500000
v 1.996741 8.003260 0.500000
v 1.996741 8.003260 -0.500000
v 2.996741 8.003260 -0.500000
v 2.996741 8.003260 0.500000
v 3.996741 8.003260 -0.500000
v 3.996741 8.003260 0.500000
v 4.996741 8.003260 -0.500000
v 5.996741 8.003260 -0.500000
v 2.996741 9.003260 -0.500000
v 2.996741 9.003260 0.500000
v 3.996741 9.003260 -0.500000
v 3.996741 9.003260 0.500000
v 4.996741 9.003260 -0.500000
v 4.996741 9.003260 0.500000
v 5.996741 9.003260 -0.500000
v 5.996741 9.003260 0.500000
v 3.996741 10.003260 -0.500000
v 3.996741 10.003260 0.500000
v 4.996741 10.003260 -0.500000
v 4.996741 10.003260 0.500000
v 5.996741 10.003260 -0.500000
v 5.996741 10.003260 0.500000
v 2.996741 5.003260 0.441406
v 1.996741 5.003260 0.441406
v 1.996741 6.003260 0.441406
v 1.996741 7.003260 0.441406
v 2.996741 6.003260 0.441406
v 3.996741 6.003260 0.441406
v 2.996741 7.003260 0.441406
v 3.996741 7.003260 0.441406
v 4.996741 7.003260 0.441406
v 4.996741 9.003260 0.441406
v 4.996741 8.003260 0.441406
v 2.996741 8.003260 0.441406
v 3.996741 8.003260 0.441406
v 5.996741 8.003260 0.441406
v 5.996741 9.003260 0.441406
v 3.996741 9.003260 0.441406
vt 0.625000 0.250000
vt 0.625000 0.000000
vt 0.625000 0.000000
vt 0.625000 0.250000
vt 0.625000 0.250000
vt 0.625000 0.250000
vt 0.625000 0.000000
vt 0.625000 1.000000
vt 0.625000 1.000000
vt 0.625000 1.000000
vt 0.625000 1.000000
vt 0.625000 0.500000
vt 0.625000 0.250000
vt 0.625000 0.500000
vt 0.625000 1.000000
vt 0.625000 1.000000
vt 0.625000 0.750000
vt 0.625000 0.750000
vt 0.625000 0.750000
vt 0.625000 0.750000
vt 0.625000 0.500000
vt 0.625000 0.500000
vt 0.625000 0.750000
vt 0.625000 0.500000
vt 0.625000 0.750000
vt 0.625000 0.500000
vt 0.625000 0.000000
vt 0.625000 0.250000
vt 0.625000 1.000000
vt 0.625000 1.000000
vt 0.875000 0.750000
vt 0.875000 0.500000
vt 0.875000 0.500000
vt 0.875000 0.750000
vt 0.625000 1.000000
vt 0.875000 0.750000
vt 0.875000 0.500000
vt 0.625000 0.500000
vt 0.625000 0.750000
vt 0.625000 0.750000
vt 0.625000 1.000000
vt 0.625000 0.250000
vt 0.625000 0.750000
vt 0.625000 0.750000
vt 0.625000 0.750000
vt 0.625000 0.750000
vt 0.625000 0.750000
vt 0.625000 0.750000
vt 0.625000 0.500000
vt 0.625000 0.500000
vt 0.625000 0.750000
vt 0.625000 0.500000
vt 0.625000 0.500000
vt 0.625000 0.750000
vt 0.625000 0.500000
vt 0.625000 0.500000
vt 0.625000 0.500000
vt 0.625000 0.500000
vt 0.625000 0.500000
vt 0.625000 0.500000
vt 0.625000 0.750000
vt 0.625000 0.750000
vt 0.625000 0.750000
vt 0.625000 0.750000
vt 0.625000 0.750000
vt 0.625000 0.750000
vt 0.625000 0.750000
vn -1.0000 0.0000 0.0000
vn 0.0000 0.0000 -1.0000
vn 0.0000 -1.0000 0.0000
vn 0.0000 0.0000 1.0000
vn 1.0000 0.0000 0.0000
vn 0.0000 1.0000 0.0000
usemtl 41
s off
f 8/1/1 7/2/1 9/3/1 10/4/1
f 5/5/2 2/6/2 8/1/2 10/4/2
f 2/6/3 1/7/3 7/2/3 8/1/3
f 1/8/4 4/9/4 9/10/4 7/11/4
f 6/12/2 5/5/2 13/13/2 14/14/2
f 4/9/5 1/8/5 43/15/5 44/16/5
f 35/17/3 33/18/3 51/19/3 56/20/3
f 35/17/5 34/21/5 40/22/5 41/23/5
f 38/24/6 39/25/6 41/23/6 40/22/6
f 33/18/4 35/17/4 41/23/4 39/25/4
f 34/21/2 32/26/2 38/24/2 40/22/2
usemtl 3E
f 10/4/1 9/3/1 16/27/1 17/28/1
f 9/10/4 4/9/4 12/29/4 16/30/4
f 12/31/6 13/32/6 17/33/6 16/34/6
f 5/5/2 10/4/2 17/28/2 13/13/2
f 12/29/5 4/9/5 44/16/5 45/35/5
usemtl 3D
f 13/32/1 12/31/1 20/36/1 21/37/1
f 22/38/6 21/37/6 20/36/6 23/39/6
f 12/29/4 15/40/4 23/39/4 20/41/4
f 14/14/2 13/13/2 21/42/2 22/38/2
f 23/39/5 15/40/5 48/43/5 53/44/5
f 15/40/3 12/29/3 45/35/3 48/43/3
usemtl 40
f 25/45/3 23/39/3 53/44/3 54/46/3
f 23/39/4 25/45/4 31/47/4 29/48/4
f 28/49/6 29/48/6 31/47/6 30/50/6
f 31/47/4 33/18/4 39/25/4 37/51/4
f 24/52/2 22/38/2 28/49/2 30/50/2
f 22/38/1 23/39/1 29/48/1 28/49/1
f 36/53/6 37/51/6 39/25/6 38/24/6
f 30/50/1 31/47/1 37/51/1 36/53/1
f 32/26/2 30/50/2 36/53/2 38/24/2
f 31/47/5 25/45/5 54/46/5 57/54/5
f 33/18/3 31/47/3 57/54/3 51/19/3
usemtl 42
f 26/55/2 24/52/2 30/50/2 32/26/2
f 19/56/2 18/57/2 24/52/2 26/55/2
f 27/58/2 26/55/2 32/26/2 34/21/2
usemtl 43
f 3/59/2 2/6/2 5/5/2 6/12/2
f 18/57/2 14/14/2 22/38/2 24/52/2
f 11/60/2 6/12/2 14/14/2 18/57/2
usemtl 1D5065
f 43/15/4 42/61/4 46/62/4 44/16/4
usemtl 104358
f 44/16/4 46/62/4 48/43/4 45/35/4
usemtl 04374C
f 46/62/4 47/63/4 49/64/4 48/43/4
usemtl 14475C
f 48/43/4 49/64/4 54/46/4 53/44/4
usemtl 0C3F54
f 49/64/4 50/65/4 52/66/4 54/46/4
usemtl 205368
f 54/46/4 52/66/4 51/19/4 57/54/4
usemtl 0F4257
f 52/66/4 55/67/4 56/20/4 51/19/4
