# Blender v2.83.3 OBJ File: 'multitool.blend'
# www.blender.org
mtllib gauge pointer.mtl
o Gage_Pointer_Cube.006
v 0.000000 -0.500000 0.875000
v 0.000000 0.500000 0.875000
v 0.000000 -0.500000 0.750000
v 0.000000 0.500000 0.750000
v 2.500000 -0.500000 0.875000
v 2.500000 0.500000 0.875000
v 2.500000 -0.500000 0.750000
v 2.500000 0.500000 0.750000
v 0.500000 -0.500000 0.750000
v 0.500000 0.500000 0.750000
v 0.500000 -0.500000 0.875000
v 0.500000 0.500000 0.875000
v 1.500000 0.500000 0.750000
v 1.500000 -0.500000 0.875000
v 1.500000 -0.500000 0.750000
v 1.500000 0.500000 0.875000
vt 0.625000 0.500000
vt nan nan
vt nan nan
vt nan nan
vt 0.375000 0.500000
vt 0.625000 0.500000
vt 0.375000 0.500000
vt nan nan
vt 0.375000 0.750000
vt nan nan
vt 0.625000 0.750000
vt 0.625000 0.750000
vt 0.375000 0.750000
vt nan nan
vt nan nan
vt nan nan
vt nan nan
vt nan nan
vt nan nan
vt nan nan
vt nan nan
vt nan nan
vt 0.625000 0.750000
vt 0.375000 0.750000
vt 0.375000 0.500000
vt 0.625000 0.500000
vt 0.625000 1.000000
vt 0.375000 1.000000
vt nan nan
vt 0.625000 0.250000
vt 0.375000 0.250000
vt 0.375000 0.000000
vt nan nan
vt 0.875000 0.500000
vt 0.875000 0.750000
vt nan nan
vt nan nan
vt nan nan
vt 0.125000 0.750000
vt 0.125000 0.500000
vn 0.0000 1.0000 0.0000
vn 0.0000 0.0000 -1.0000
vn 0.0000 -1.0000 0.0000
vn 0.0000 0.0000 1.0000
vn 1.0000 0.0000 0.0000
vn -1.0000 0.0000 0.0000
usemtl 5A
s off
f 8/1/1 13/2/1 16/3/1 6/4/1
f 15/5/2 13/6/2 8/1/2 7/7/2
f 15/8/3 7/7/3 5/9/3 14/10/3
f 5/9/4 6/11/4 16/12/4 14/13/4
f 7/7/5 8/1/5 6/11/5 5/14/5
usemtl 5D
f 15/15/3 14/16/3 11/17/3 9/18/3
f 10/19/1 12/20/1 16/21/1 13/22/1
f 14/13/4 16/12/4 12/23/4 11/24/4
f 9/25/2 10/26/2 13/6/2 15/5/2
usemtl 53
f 11/24/4 12/23/4 2/27/4 1/28/4
f 2/29/6 4/30/6 3/31/6 1/32/6
f 3/31/2 4/30/2 10/26/2 9/25/2
f 10/33/1 4/34/1 2/35/1 12/36/1
f 9/37/3 11/38/3 1/39/3 3/40/3
