# Blender v2.83.3 OBJ File: 'multitool.blend'
# www.blender.org
mtllib gauge face.mtl
o Gage_Face_Cube.007
v 9.000000 5.000000 1.000000
v 9.000000 6.000000 1.000000
v 10.000000 5.000000 1.000000
v 10.000000 6.000000 1.000000
v 8.000000 5.000000 1.000000
v 8.000000 6.000000 1.000000
v 7.000000 5.000000 1.000000
v 7.000000 6.000000 1.000000
v 11.000000 5.000000 1.000000
v 11.000000 6.000000 1.000000
v 12.000000 5.000000 1.000000
v 12.000000 6.000000 1.000000
v 9.000000 7.000000 1.000000
v 10.000000 7.000000 1.000000
v 8.000000 7.000000 1.000000
v 7.000000 7.000000 1.000000
v 11.000000 7.000000 1.000000
v 12.000000 7.000000 1.000000
v 9.000000 4.000000 1.000000
v 10.000000 4.000000 1.000000
v 8.000000 4.000000 1.000000
v 7.000000 4.000000 1.000000
v 11.000000 4.000000 1.000000
v 12.000000 4.000000 1.000000
v 9.000000 3.000000 1.000000
v 10.000000 3.000000 1.000000
v 8.000000 3.000000 1.000000
v 11.000000 3.000000 1.000000
v 9.000000 8.000000 1.000000
v 10.000000 8.000000 1.000000
v 8.000000 8.000000 1.000000
v 11.000000 8.000000 1.000000
vt 0.625000 0.750000
vt 0.375000 0.750000
vt 0.375000 0.750000
vt 0.625000 0.750000
vt 0.625000 1.000000
vt 0.375000 1.000000
vt 0.625000 0.750000
vt 0.625000 1.000000
vt 0.375000 1.000000
vt 0.375000 1.000000
vt 0.375000 1.000000
vt 0.625000 1.000000
vt 0.625000 1.000000
vt 0.375000 1.000000
vt 0.375000 0.750000
vt 0.625000 0.750000
vt 0.625000 0.750000
vt 0.625000 0.750000
vt 0.625000 1.000000
vt 0.625000 0.750000
vt 0.625000 0.750000
vt 0.625000 1.000000
vt 0.375000 0.750000
vt 0.375000 1.000000
vt 0.375000 0.750000
vt 0.375000 1.000000
vt 0.375000 0.750000
vt 0.375000 0.750000
vt 0.375000 0.750000
vt 0.375000 1.000000
vt 0.625000 1.000000
vt 0.625000 1.000000
vn 0.0000 0.0000 1.0000
usemtl Material.001
s off
f 4/1/1 3/2/1 9/3/1 10/4/1
f 3/2/1 4/1/1 2/5/1 1/6/1
f 2/5/1 4/1/1 14/7/1 13/8/1
f 1/6/1 5/9/1 21/10/1 19/11/1
f 1/6/1 2/5/1 6/12/1 5/9/1
f 5/9/1 6/12/1 8/13/1 7/14/1
f 10/4/1 9/3/1 11/15/1 12/16/1
f 10/4/1 12/16/1 18/17/1 17/18/1
f 6/12/1 2/5/1 13/8/1 15/19/1
f 14/7/1 17/18/1 32/20/1 30/21/1
f 8/13/1 6/12/1 15/19/1 16/22/1
f 4/1/1 10/4/1 17/18/1 14/7/1
f 20/23/1 19/11/1 25/24/1 26/25/1
f 19/11/1 21/10/1 27/26/1 25/24/1
f 23/27/1 20/23/1 26/25/1 28/28/1
f 9/3/1 3/2/1 20/23/1 23/27/1
f 11/15/1 9/3/1 23/27/1 24/29/1
f 3/2/1 1/6/1 19/11/1 20/23/1
f 5/9/1 7/14/1 22/30/1 21/10/1
f 13/8/1 14/7/1 30/21/1 29/31/1
f 15/19/1 13/8/1 29/31/1 31/32/1
