# Blender v2.83.3 OBJ File: 'multitool.blend'
# www.blender.org
mtllib left gripper.mtl
o Left_Gripper_Cube.003
v 10.000000 12.000000 0.625000
v 8.000000 12.000000 0.625000
v 9.000000 13.000000 -0.625000
v 9.000000 13.000000 0.625000
v 10.000000 13.000000 -0.625000
v 10.000000 13.000000 0.625000
v 9.000000 14.000000 -0.625000
v 9.000000 14.000000 0.625000
v 10.000000 14.000000 -0.625000
v 10.000000 14.000000 0.625000
v 8.000000 14.000000 -0.625000
v 8.000000 14.000000 0.625000
v 11.000000 13.000000 -0.625000
v 11.000000 14.000000 -0.625000
v 11.000000 13.000000 0.625000
v 11.000000 14.000000 0.625000
v 9.000000 15.000000 -0.625000
v 9.000000 15.000000 0.625000
v 10.000000 15.000000 -0.625000
v 10.000000 15.000000 0.625000
v 11.000000 15.000000 -0.625000
v 11.000000 15.000000 0.625000
v 12.000000 14.000000 -0.625000
v 12.000000 14.000000 0.625000
v 12.000001 15.000000 -0.625000
v 12.000001 15.000000 0.625000
v 10.000000 16.000000 -0.625000
v 10.000000 16.000000 0.625000
v 11.000000 16.000000 -0.625000
v 11.000000 16.000000 0.625000
v 12.000001 16.000000 -0.625000
v 12.000001 16.000000 0.625000
v 9.000000 12.000000 -0.625000
v 9.000000 12.000000 0.625000
v 8.000000 12.000000 -0.625000
v 10.000000 12.000000 -0.625000
v 8.000000 13.000000 -0.625000
v 8.000000 13.000000 0.625000
vt 0.625000 0.500000
vt 0.625000 0.500000
vt 0.625000 0.500000
vt 0.625000 0.500000
vt 0.625000 0.250000
vt 0.625000 0.250000
vt 0.625000 0.250000
vt 0.625000 0.250000
vt 0.875000 0.500000
vt 0.875000 0.500000
vt 0.875000 0.500000
vt 0.625000 0.250000
vt 0.625000 0.250000
vt 0.625000 0.250000
vt 0.625000 0.250000
vt 0.625000 0.500000
vt 0.625000 0.500000
vt 0.625000 0.500000
vt 0.625000 0.500000
vt 0.825000 0.500000
vt 0.875000 0.500000
vt 0.875000 0.500000
vt 0.625000 0.250000
vt 0.625000 0.250000
vt 0.625000 0.500000
vt 0.625000 0.500000
vt 0.625000 0.250000
vt 0.625000 0.250000
vt 0.625000 0.250000
vt 0.625000 0.250000
vt 0.625000 0.500000
vt 0.625000 0.500000
vt 0.625000 0.500000
vt 0.625000 0.500000
vt 0.875000 0.500000
vt 0.875000 0.500000
vt 0.625000 0.300000
vt 0.875000 0.500000
vt 0.675000 0.500000
vt 0.875000 0.500000
vt 0.625000 0.250000
vt 0.625000 0.500000
vt 0.875000 0.500000
vt 0.675000 0.500000
vt 0.875000 0.500000
vt 0.625000 0.500000
vt 0.625000 0.500000
vt 0.625000 0.250000
vt 0.625000 0.250000
vt 0.625000 0.250000
vt 0.625000 0.500000
vt 0.625000 0.500000
vt 0.625000 0.250000
vt 0.875000 0.500000
vt 0.875000 0.500000
vt 0.875000 0.500000
vt 0.875000 0.500000
vn 0.0000 -0.0000 1.0000
vn -0.0000 0.0000 -1.0000
vn 1.0000 0.0000 0.0000
vn 0.0000 -1.0000 0.0000
vn -1.0000 0.0000 0.0000
vn 0.0000 1.0000 0.0000
usemtl 42
s off
f 10/1/1 6/2/1 15/3/1 16/4/1
f 5/5/2 9/6/2 14/7/2 13/8/2
f 15/3/3 13/9/3 14/10/3 16/4/3
f 6/2/4 5/11/4 13/9/4 15/3/4
usemtl 3E
f 3/12/2 37/13/2 11/14/2 7/15/2
f 38/16/1 4/17/1 8/18/1 12/19/1
f 37/20/5 38/16/5 12/19/5 11/21/5
f 8/18/6 7/22/6 11/21/6 12/19/6
usemtl 41
f 36/23/2 33/24/2 3/12/2 5/5/2
f 34/25/1 1/26/1 6/2/1 4/17/1
f 25/27/2 21/28/2 29/29/2 31/30/2
f 22/31/1 26/32/1 32/33/1 30/34/1
f 29/35/6 30/34/6 32/33/6 31/36/6
f 34/25/4 33/24/4 36/37/4 1/26/4
f 26/32/3 25/38/3 31/36/3 32/33/3
f 1/39/3 36/40/3 5/11/3 6/2/3
usemtl 54
f 5/5/2 3/12/2 7/15/2 9/6/2
f 4/17/1 6/2/1 10/1/1 8/18/1
usemtl 46
f 33/24/2 35/41/2 37/13/2 3/12/2
f 2/42/1 34/25/1 4/17/1 38/16/1
f 2/42/4 35/41/4 33/24/4 34/25/4
f 35/43/5 2/42/5 38/44/5 37/45/5
usemtl 40.001
f 8/18/1 10/1/1 20/46/1 18/47/1
f 9/6/2 7/15/2 17/48/2 19/49/2
f 14/7/2 21/28/2 25/27/2 23/50/2
f 22/31/1 16/4/1 24/51/1 26/32/1
f 20/46/1 22/31/1 30/34/1 28/52/1
f 21/28/2 19/49/2 27/53/2 29/29/2
f 19/54/5 20/46/5 28/52/5 27/55/5
f 27/55/6 28/52/6 30/34/6 29/35/6
f 24/51/3 23/56/3 25/38/3 26/32/3
f 16/4/4 14/10/4 23/56/4 24/51/4
f 17/57/6 18/47/6 20/46/6 19/54/6
f 7/22/5 8/18/5 18/47/5 17/57/5
usemtl 56
f 10/1/1 16/4/1 22/31/1 20/46/1
f 14/7/2 9/6/2 19/49/2 21/28/2
